<?xml version="1.0" encoding="UTF-8"?>
<svg width="340" height="120" viewBox="0 0 340 120" fill="none" xmlns="http://www.w3.org/2000/svg">
  <defs>
    <linearGradient id="swirlTop" x1="30" y1="20" x2="130" y2="70" gradientUnits="userSpaceOnUse">
      <stop stop-color="#10B981"/>
      <stop offset="1" stop-color="#34D399"/>
    </linearGradient>
    <linearGradient id="swirlBottom" x1="20" y1="50" x2="120" y2="110" gradientUnits="userSpaceOnUse">
      <stop stop-color="#F59E0B"/>
      <stop offset="1" stop-color="#F97316"/>
    </linearGradient>
    <radialGradient id="glowGreen" cx="0" cy="0" r="1" gradientUnits="userSpaceOnUse" gradientTransform="translate(78 38) rotate(90) scale(56 56)">
      <stop stop-color="#10B981" stop-opacity="0.9"/>
      <stop offset="1" stop-color="#10B981" stop-opacity="0"/>
    </radialGradient>
    <radialGradient id="glowOrange" cx="0" cy="0" r="1" gradientUnits="userSpaceOnUse" gradientTransform="translate(70 82) rotate(90) scale(50 50)">
      <stop stop-color="#F59E0B" stop-opacity="0.9"/>
      <stop offset="1" stop-color="#F59E0B" stop-opacity="0"/>
    </radialGradient>
    <filter id="soften" x="-15%" y="-20%" width="130%" height="150%" color-interpolation-filters="sRGB">
      <feGaussianBlur stdDeviation="10" result="blur"/>
      <feBlend in="SourceGraphic" in2="blur" mode="screen"/>
    </filter>
  </defs>

  <g filter="url(#soften)">
    <circle cx="82" cy="40" r="52" fill="url(#glowGreen)" opacity="0.55"/>
    <circle cx="66" cy="86" r="48" fill="url(#glowOrange)" opacity="0.5"/>
    <path d="M95 18H77c-23 0-42 19-42 42 0 10 8 18 18 18h36c12.7 0 23-10.3 23-23s-10.3-23-23-23h-9c-3.9 0-7-3.1-7-7s3.1-7 7-7h15c3.9 0 7-3.1 7-7s-3.1-7-7-7Z" fill="url(#swirlTop)"/>
    <path d="M49 102h18c23 0 42-19 42-42 0-10-8-18-18-18H55c-12.7 0-23 10.3-23 23s10.3 23 23 23h9c3.9 0 7 3.1 7 7s-3.1 7-7 7H42c-3.9 0-7 3.1-7 7s3.1 7 7 7Z" fill="url(#swirlBottom)"/>
  </g>

  <g fill="#0F172A" font-family="Inter, 'SF Pro Display', 'Helvetica Neue', Arial, sans-serif" font-weight="700">
    <text font-size="46" letter-spacing="0.5" x="150" y="58">Entry</text>
    <text font-size="46" letter-spacing="0.5" x="150" y="106">Flow</text>
  </g>
</svg>


