<?xml version="1.0" encoding="UTF-8" standalone="no"?><!DOCTYPE svg PUBLIC "-//W3C//DTD SVG 1.1//EN" "http://www.w3.org/Graphics/SVG/1.1/DTD/svg11.dtd"><svg width="100%" height="100%" viewBox="0 0 1022 703" version="1.1" xmlns="http://www.w3.org/2000/svg" xmlns:xlink="http://www.w3.org/1999/xlink" xml:space="preserve" xmlns:serif="http://www.serif.com/" style="fill-rule:evenodd;clip-rule:evenodd;stroke-linejoin:round;stroke-miterlimit:2;"><path d="M610.487,167.335c17.698,-17.74 28.644,-42.219 28.644,-69.258c0,-54.167 -43.908,-98.077 -98.073,-98.077c-34.244,0 -64.35,17.575 -81.892,44.171c-4.656,4.671 -395.075,485.867 -398.721,491.394c-17.698,17.742 -28.646,42.221 -28.646,69.26c0,54.165 43.91,98.075 98.075,98.075c34.242,0 64.348,-17.575 81.89,-44.169c4.658,-4.671 395.077,-485.867 398.723,-491.396Z" style="fill-rule:nonzero;"/><path d="M836.4,395.66c17.74,-17.748 28.715,-42.263 28.715,-69.34c0,-54.165 -43.908,-98.075 -98.075,-98.075c-34.258,0 -64.375,17.592 -81.913,44.208c-4.7,4.7 -209.756,257.46 -213.427,263.031c-17.744,17.748 -28.717,42.263 -28.717,69.34c0,54.165 43.91,98.075 98.075,98.075c34.256,0 64.373,-17.592 81.91,-44.208c4.7,-4.7 209.758,-257.46 213.431,-263.031Z" style="fill-rule:nonzero;"/><path d="M1021.148,593.91c0,54.165 -43.908,98.073 -98.075,98.073c-54.165,0 -98.073,-43.908 -98.073,-98.073c0,-54.167 43.908,-98.075 98.073,-98.075c54.167,0 98.075,43.908 98.075,98.075Z" style="fill-rule:nonzero;"/><path d="M196.148,141.827c0,54.165 -43.908,98.073 -98.075,98.073c-54.165,0 -98.073,-43.908 -98.073,-98.073c0,-54.167 43.908,-98.075 98.073,-98.075c54.167,0 98.075,43.908 98.075,98.075Z" style="fill-rule:nonzero;"/></svg>